<?xml version="1.0" standalone="no"?>
<!DOCTYPE svg PUBLIC "-//W3C//DTD SVG 20010904//EN"
 "http://www.w3.org/TR/2001/REC-SVG-20010904/DTD/svg10.dtd">
<svg version="1.0" xmlns="http://www.w3.org/2000/svg"
 width="768.000000pt" height="768.000000pt" viewBox="0 0 768.000000 768.000000"
 preserveAspectRatio="xMidYMid meet">
<metadata>
Created by potrace 1.14, written by Peter Selinger 2001-2017
</metadata>
<g transform="translate(0.000000,768.000000) scale(0.100000,-0.100000)"
fill="#000000" stroke="none">
<path d="M791 7643 c13 -15 27 -30 30 -33 15 -14 95 -121 125 -167 91 -142
159 -324 179 -473 3 -25 8 -61 10 -80 6 -43 7 -328 1 -355 -7 -37 -20 -309
-18 -408 4 -310 106 -544 323 -740 80 -73 115 -94 55 -32 -112 113 -205 347
-231 580 -4 33 -9 71 -11 85 -8 52 -4 299 6 366 20 127 48 153 78 72 31 -82
66 -342 71 -527 0 -24 3 -42 5 -40 8 8 45 185 51 246 4 32 9 66 11 75 12 43
11 311 -1 407 -50 373 -245 691 -601 976 -97 78 -124 94 -83 48z"/>
<path d="M6832 7564 c-280 -213 -472 -516 -548 -865 -14 -64 -19 -127 -19
-264 0 -168 2 -190 34 -330 18 -82 38 -154 42 -159 5 -6 9 26 10 75 2 156 7
234 18 294 15 82 72 275 81 275 9 0 48 -163 59 -250 33 -244 -31 -555 -169
-830 -33 -66 -60 -123 -60 -125 0 -3 37 33 83 79 146 149 231 334 267 576 9
62 5 463 -5 525 -13 73 -6 373 9 462 36 204 121 391 249 546 21 26 35 47 30
47 -4 0 -41 -25 -81 -56z"/>
<path d="M1476 6905 c26 -113 63 -197 162 -367 66 -113 97 -177 108 -223 l7
-30 7 30 c4 17 8 58 9 93 l1 63 60 -42 c110 -77 177 -170 196 -272 9 -50 21
-31 30 45 l6 57 27 -25 c29 -27 41 -30 41 -11 0 40 -92 138 -346 368 -149 135
-236 227 -288 304 -26 38 -27 39 -20 10z"/>
<path d="M6054 6688 c-92 -90 -204 -199 -249 -243 -45 -44 -96 -91 -113 -105
-35 -27 -98 -117 -89 -126 3 -3 22 6 42 21 19 15 38 25 41 22 3 -3 7 -20 10
-39 15 -110 14 -109 38 -28 32 112 85 180 200 259 l46 32 1 -48 c0 -26 3 -65
7 -87 7 -37 9 -34 129 206 130 262 145 298 120 298 -8 0 -91 -73 -183 -162z"/>
<path d="M6169 6480 c-75 -100 -135 -305 -141 -486 -2 -40 -6 -70 -10 -68 -9
6 -36 90 -47 151 -6 28 -13 104 -16 169 -3 65 -7 120 -9 122 -2 2 -25 -24 -51
-58 -115 -149 -169 -365 -134 -530 6 -28 9 -54 6 -56 -9 -10 -47 63 -62 121
-8 33 -18 118 -21 190 -4 71 -8 132 -10 134 -11 12 -95 -88 -118 -138 -40 -91
-46 -134 -42 -323 2 -98 0 -178 -4 -178 -16 0 -39 96 -44 184 -2 49 -9 93 -14
98 -9 9 -67 -64 -121 -155 -13 -20 -26 -35 -31 -32 -4 2 -10 -9 -14 -25 -24
-124 -210 -197 -591 -235 -240 -24 -292 -51 -207 -107 39 -26 130 -133 174
-203 25 -39 57 -125 75 -195 l9 -35 128 123 c71 68 186 168 255 224 69 55 139
115 154 134 47 57 51 33 16 -98 -9 -35 -118 -150 -279 -294 -226 -202 -313
-337 -406 -631 -21 -65 -48 -131 -61 -146 -13 -16 -23 -34 -23 -40 0 -7 -12
-37 -26 -67 l-25 -54 55 56 c30 31 68 63 84 72 103 53 193 0 104 -61 l-34 -22
34 -21 c18 -11 37 -20 41 -20 24 0 66 33 78 61 26 64 4 130 -53 153 -33 14
-112 12 -154 -4 -44 -17 -41 -2 11 47 106 100 216 121 435 83 234 -40 344 -23
450 70 l35 31 -45 -7 c-52 -8 -273 -8 -310 1 -14 3 -90 8 -170 12 -80 3 -146
7 -148 8 -1 1 12 12 30 25 18 12 51 44 72 71 22 28 53 64 68 81 16 18 24 36
20 40 -5 5 -32 4 -61 -2 -84 -16 -90 -12 -34 24 64 40 145 66 328 105 78 16
171 42 208 56 133 53 226 174 228 295 0 59 12 49 24 -21 8 -52 28 -66 60 -45
39 26 143 172 151 211 6 36 23 48 25 18 1 -36 10 -78 18 -86 9 -9 131 152 164
219 44 87 55 177 52 431 -2 125 -5 237 -8 248 -6 25 -36 303 -40 365 l-2 45
-26 -35z"/>
<path d="M1551 6405 c-1 -52 -3 -100 -5 -107 -3 -7 -7 -42 -11 -78 -3 -35 -10
-98 -16 -140 -47 -365 -22 -561 97 -754 49 -80 100 -144 108 -136 2 3 8 28 11
55 7 47 12 64 18 54 1 -2 21 -43 45 -90 45 -92 86 -142 123 -154 19 -6 29 -1
50 24 l26 32 7 -32 c19 -97 108 -195 230 -254 99 -47 223 -77 410 -99 22 -2
61 -20 92 -41 69 -48 77 -60 33 -51 -100 22 -113 16 -80 -37 26 -41 137 -150
176 -171 29 -17 28 -17 -55 -12 -47 3 -94 8 -105 10 -11 2 -63 -3 -115 -10
-146 -22 -259 -27 -320 -16 -30 6 -59 7 -63 2 -12 -11 100 -78 163 -97 62 -18
183 -20 280 -4 36 6 83 13 105 17 164 27 304 -12 373 -105 l21 -29 -84 6 c-92
5 -119 -4 -151 -54 -34 -50 -9 -131 46 -154 27 -11 37 -11 66 3 34 17 46 37
21 37 -8 0 -24 11 -36 24 -18 20 -21 28 -12 44 26 48 80 38 174 -31 37 -27 70
-47 73 -44 3 3 -13 40 -35 83 -22 44 -58 134 -80 201 -82 250 -152 368 -314
522 -357 341 -357 341 -372 406 -27 115 -23 118 53 43 37 -37 105 -95 151
-129 47 -34 149 -125 228 -202 79 -77 143 -138 144 -136 1 2 3 30 5 62 9 121
61 214 189 336 47 44 85 87 85 95 0 28 -43 40 -195 51 -93 8 -156 14 -180 19
-11 2 -60 11 -110 20 -49 9 -121 26 -158 38 -89 27 -133 71 -256 251 -52 76
-97 135 -101 130 -4 -4 -10 -51 -14 -104 -6 -99 -14 -134 -41 -172 -14 -20
-15 -14 -9 73 3 52 7 114 8 136 4 67 -13 185 -35 249 -21 58 -101 175 -119
175 -13 0 -18 -30 -24 -150 -6 -122 -21 -199 -47 -252 -23 -45 -46 -63 -35
-27 4 13 10 65 13 115 11 179 -50 357 -169 488 l-27 30 1 -45 c2 -72 -31 -302
-54 -381 -17 -57 -29 -35 -25 45 7 151 -44 333 -131 465 -19 28 -36 52 -37 52
-2 0 -3 -43 -4 -95z"/>
<path d="M3415 6441 c3 -6 12 -11 20 -11 7 0 36 -21 64 -46 92 -82 156 -259
140 -381 -4 -30 -10 -57 -13 -60 -10 -10 -37 20 -87 94 -27 40 -58 77 -68 82
-30 16 -54 -19 -59 -87 -3 -55 -2 -59 43 -112 25 -30 58 -80 73 -110 24 -50
27 -65 26 -160 0 -125 -14 -168 -131 -402 -74 -150 -107 -225 -123 -281 -10
-31 -9 -30 55 16 22 15 41 23 43 18 2 -6 -7 -41 -19 -78 -42 -125 -24 -229 72
-413 74 -142 113 -165 98 -57 -17 120 4 286 47 385 l17 37 12 -65 c7 -36 28
-99 49 -140 20 -41 36 -84 37 -95 1 -28 52 81 84 179 30 94 37 131 38 211 l1
60 27 -60 c15 -33 32 -86 39 -119 13 -67 14 -216 1 -293 -4 -29 -5 -53 -1 -53
4 0 17 29 29 65 31 96 28 194 -13 399 -35 175 -49 266 -40 266 3 0 21 -33 39
-73 87 -189 104 -408 46 -610 -50 -172 -118 -311 -320 -650 -224 -376 -303
-557 -337 -766 -20 -126 -16 -310 7 -295 5 3 9 -14 10 -38 1 -145 15 -241 44
-322 41 -114 95 -197 332 -520 144 -196 186 -263 226 -358 15 -35 14 -39 -3
-61 -27 -34 -141 -92 -230 -117 -243 -68 -416 27 -656 360 -50 69 -200 289
-334 490 -134 201 -265 396 -291 435 -55 80 -53 92 14 126 23 12 71 52 108 88
97 98 132 186 124 314 -12 186 -181 354 -423 419 -73 19 -107 21 -607 22 -321
2 -535 -1 -542 -7 -29 -21 -8 -77 28 -77 9 0 27 -9 40 -19 l24 -19 1 -659 c2
-725 5 -691 -61 -713 -42 -14 -59 -55 -31 -76 23 -16 593 -19 613 -3 16 14 17
53 1 66 -7 6 -25 13 -40 17 -49 12 -54 39 -53 291 0 127 3 235 7 240 4 7 62
10 152 10 114 -1 149 -4 160 -15 14 -16 210 -275 491 -650 93 -124 180 -239
194 -256 14 -17 44 -53 66 -80 206 -256 459 -409 727 -439 189 -22 328 0 500
77 37 17 73 28 81 25 21 -8 66 -255 67 -366 0 -57 8 -64 16 -15 2 16 6 38 9
49 8 36 19 208 19 295 0 202 -25 353 -85 529 -21 63 -37 117 -34 119 14 15 94
-97 169 -238 31 -58 56 -99 56 -91 0 25 -50 235 -74 311 -96 301 -218 488
-480 734 -148 140 -192 195 -217 277 -24 77 -24 133 1 234 57 236 282 632 693
1218 42 60 79 123 83 140 6 30 7 31 15 10 4 -12 6 -46 3 -75 -12 -146 -15
-169 -24 -193 -28 -74 131 39 186 133 27 46 59 165 68 252 7 71 17 134 22 139
10 10 43 -89 46 -136 2 -29 6 -53 10 -53 15 0 30 106 25 168 -12 122 -86 243
-244 396 -66 64 -67 66 -35 60 33 -7 33 -6 -26 50 -66 63 -104 127 -121 201
-6 28 -13 133 -15 235 -2 102 -7 196 -11 210 l-8 25 26 -24 c14 -13 46 -53 71
-90 76 -113 119 -151 168 -151 32 0 90 17 111 33 15 10 8 12 -47 12 -57 0 -68
3 -94 28 -28 26 -90 141 -107 197 -21 68 -152 205 -250 261 -54 31 -84 36
-103 17 -15 -15 -16 -74 -1 -83 29 -18 69 -90 69 -124 0 -35 0 -36 -13 -11
-14 29 -77 63 -100 54 -20 -7 -43 -65 -52 -134 -6 -42 -10 -50 -16 -35 -17 43
-9 91 28 165 48 100 51 169 9 224 -32 42 -74 71 -126 87 -51 15 -264 23 -255
10z m531 -657 c-6 -52 -29 -114 -42 -114 -4 0 -3 15 0 34 10 53 36 136 43 136
3 0 3 -25 -1 -56z m20 -254 c7 -54 34 -123 93 -235 66 -125 70 -136 34 -105
-15 14 -31 29 -35 35 -18 25 -15 -7 6 -60 21 -53 42 -136 32 -124 -15 17 -132
219 -154 266 -33 73 -37 167 -8 231 11 23 21 40 23 38 3 -2 7 -23 9 -46z
m-2144 -1945 c53 -6 155 -43 207 -73 74 -43 157 -134 181 -200 46 -123 9 -266
-93 -358 -57 -51 -166 -107 -252 -129 -62 -16 -240 -23 -252 -11 -4 4 -8 165
-8 359 -1 274 2 358 12 379 20 42 70 50 205 33z"/>
<path d="M5340 5883 c-30 -4 -163 -23 -205 -29 -266 -43 -482 -134 -603 -254
-40 -39 -93 -110 -104 -140 -4 -8 -13 -32 -22 -53 l-17 -38 73 56 c95 72 159
96 273 101 187 8 239 24 367 110 67 46 277 238 268 246 -3 2 -16 2 -30 1z"/>
<path d="M2455 5790 c130 -132 261 -222 360 -248 22 -6 72 -14 110 -17 114
-10 158 -15 200 -26 51 -13 137 -61 194 -107 41 -33 43 -34 36 -11 -12 39 -72
141 -104 176 -121 130 -334 235 -549 269 -20 3 -39 7 -42 9 -7 4 -143 23 -225
31 l-60 5 80 -81z"/>
<path d="M5935 5103 c-78 -93 -185 -202 -234 -238 -22 -16 -41 -34 -41 -39 0
-15 106 1 169 27 72 29 142 80 167 122 l18 30 -27 -18 c-39 -25 -41 -22 -12
28 28 47 47 155 27 155 -6 0 -36 -30 -67 -67z"/>
<path d="M1745 5104 c3 -34 14 -72 29 -100 l25 -44 -22 0 c-19 -1 -16 -6 22
-40 68 -62 161 -104 240 -107 l66 -4 -35 28 c-65 52 -185 172 -245 247 -33 41
-65 75 -72 75 -8 1 -11 -16 -8 -55z"/>
<path d="M5875 4776 c-40 -17 -148 -44 -205 -51 -25 -2 -61 -7 -80 -10 -19 -2
-69 -7 -110 -10 -127 -10 -153 -15 -205 -40 -105 -50 -123 -96 -50 -126 67
-26 363 -18 465 12 49 15 43 22 -35 39 -93 19 -94 25 -3 49 105 29 175 63 229
112 45 41 44 47 -6 25z"/>
<path d="M3251 4749 c-6 -18 -11 -55 -11 -82 l0 -50 -35 39 c-19 21 -34 33
-35 26 -1 -30 88 -189 134 -239 50 -55 136 -113 168 -113 14 0 5 16 -33 63
-87 108 -138 216 -147 315 -8 73 -24 89 -41 41z"/>
<path d="M1870 4740 c53 -45 161 -99 240 -119 l71 -18 -43 -12 c-87 -26 -96
-64 -16 -71 112 -9 391 1 456 17 32 8 28 18 -28 62 -77 61 -173 92 -325 105
-157 14 -193 18 -250 27 -33 6 -75 17 -94 25 -48 20 -50 18 -11 -16z"/>
<path d="M4860 4271 c0 -20 67 -95 101 -113 74 -38 156 -28 294 36 41 19 75
36 75 38 0 2 -35 2 -77 1 -43 -1 -122 7 -176 17 -131 25 -217 34 -217 21z"/>
<path d="M2735 4248 c-57 -13 -131 -21 -202 -22 -62 0 -113 -2 -113 -3 0 -4
69 -37 135 -64 115 -49 203 -45 273 12 29 24 62 72 62 90 0 14 -55 9 -155 -13z"/>
<path d="M3559 3923 c-13 -16 -12 -17 4 -4 16 13 21 21 13 21 -2 0 -10 -8 -17
-17z"/>
<path d="M3483 3828 c-32 -39 -73 -88 -91 -109 -18 -20 -51 -79 -73 -131 -22
-51 -52 -109 -67 -128 -90 -114 -182 -367 -216 -591 -14 -93 -15 -343 -1 -419
42 -232 137 -422 284 -570 62 -62 131 -118 131 -106 0 3 -14 47 -30 98 -34
102 -103 362 -119 448 -43 227 -56 355 -56 560 0 163 9 262 36 395 39 195 127
413 227 563 23 34 39 62 37 62 -2 0 -30 -32 -62 -72z"/>
<path d="M4570 3586 c-114 -30 -202 -102 -252 -204 -31 -62 -33 -74 -33 -167
0 -160 -1 -158 349 -506 337 -333 350 -350 350 -464 1 -162 -121 -282 -296
-293 -97 -6 -162 16 -230 77 -61 54 -72 77 -88 171 -18 107 -55 231 -91 303
-40 78 -113 176 -125 165 -2 -3 18 -73 46 -157 27 -84 50 -168 50 -187 0 -36
0 -36 -49 38 -60 90 -176 211 -337 351 -161 141 -257 240 -321 333 -29 43 -53
75 -53 71 0 -4 23 -53 51 -110 46 -92 148 -250 198 -309 11 -13 28 -32 38 -44
21 -25 182 -202 200 -220 39 -39 131 -181 165 -253 63 -135 110 -340 124 -546
3 -44 7 -93 9 -110 2 -16 4 -55 4 -84 2 -158 92 172 107 395 l7 91 55 -33 c96
-58 163 -75 307 -75 211 0 372 81 483 242 78 116 105 281 68 422 -32 117 -78
179 -261 352 -76 72 -181 171 -234 221 -53 51 -117 112 -143 136 -78 74 -92
139 -43 204 51 66 127 87 201 54 91 -40 183 -137 199 -211 5 -23 10 -26 48
-25 l42 2 0 169 c0 186 0 186 -61 171 -21 -6 -24 -12 -24 -51 0 -25 -4 -45
-10 -45 -5 0 -10 5 -10 11 0 27 -86 80 -172 105 -65 20 -212 25 -268 10z"/>
<path d="M5386 3558 c-8 -4 -11 -18 -8 -33 3 -18 11 -25 28 -25 13 0 32 -9 43
-21 18 -20 19 -44 19 -776 l0 -756 -24 -24 c-13 -13 -32 -23 -42 -23 -19 0
-37 -42 -24 -55 3 -3 254 -5 559 -5 l553 0 0 100 c0 106 2 102 -50 102 -34 0
-36 -1 -49 -37 -8 -24 -20 -37 -38 -41 -21 -6 -390 -9 -503 -5 l-25 1 1 508
c1 279 2 510 3 514 0 3 99 6 219 6 237 -1 245 -3 257 -59 6 -27 10 -29 51 -29
28 0 44 5 45 13 1 17 1 239 0 260 -1 13 -10 17 -45 17 -41 0 -45 -2 -51 -29
-12 -54 -19 -55 -256 -56 -190 -1 -219 1 -220 15 -3 37 -5 306 -2 315 4 12
495 13 530 2 22 -8 37 -32 42 -67 0 -5 21 -10 46 -10 l45 0 0 100 c0 88 -2
100 -17 101 -106 5 -1078 2 -1087 -3z"/>
<path d="M1385 1088 c-67 -8 -180 -61 -201 -94 -13 -18 -11 -22 17 -43 31 -23
31 -23 52 -3 41 37 91 55 165 60 132 9 204 -40 204 -138 -1 -80 -29 -118 -238
-323 -161 -158 -194 -196 -194 -219 0 -15 3 -29 8 -29 21 -4 529 -5 540 -1 6
2 12 20 12 41 l0 36 -210 0 c-115 -1 -210 0 -210 2 0 2 73 76 163 165 187 186
217 232 217 330 0 93 -37 155 -114 192 -47 22 -140 33 -211 24z"/>
<path d="M2991 1088 c-165 -25 -264 -174 -264 -398 0 -234 111 -387 290 -398
118 -8 204 34 267 130 48 74 69 154 69 268 1 265 -149 430 -362 398z m138 -98
c89 -45 135 -145 135 -295 2 -202 -83 -325 -224 -325 -141 0 -226 121 -224
320 0 154 44 253 132 300 50 26 131 26 181 0z"/>
<path d="M4743 1071 c-48 -16 -127 -63 -139 -83 -5 -8 5 -20 38 -46 15 -12 22
-10 51 12 49 38 111 56 186 56 74 -1 123 -20 154 -61 24 -34 25 -114 0 -166
-10 -22 -99 -119 -214 -233 -163 -161 -197 -200 -197 -222 0 -16 6 -29 12 -29
6 -1 131 -2 279 -3 l267 -1 0 40 0 40 -202 -1 c-112 0 -206 1 -210 3 -3 2 67
76 157 166 189 187 219 233 216 339 -1 32 -8 72 -15 87 -23 44 -76 89 -124
106 -63 21 -193 19 -259 -4z"/>
<path d="M6110 1049 l0 -39 53 -1 c28 -1 70 -2 92 -3 l40 -1 0 -345 c0 -190 3
-350 7 -355 5 -9 26 -11 71 -6 4 1 7 178 7 394 l0 393 -135 1 -135 0 0 -38z"/>
</g>
</svg>
