<svg id="svg170" xmlns="http://www.w3.org/2000/svg" viewBox="0 0 147.74 182.85"><defs><style>.cls-1,.cls-2{fill:none;stroke:#000;stroke-width:2px;}.cls-1{stroke-miterlimit:10;}</style></defs><title>rise-logo</title><path id="path75" class="cls-1" d="M89.46,40.84c-.55.82-2.16,1.13-3.28,1-1.87-.27-4.4-4.71-5.42-6.24-.38-.56-.53-1.07-1.22-1.27a27.19,27.19,0,0,1,.79,6.09c0,5.23-1.46,6,1.66,11.23a9.87,9.87,0,0,0,1.46,1.88c.59.64,1.42,1,1.64,1.9H83.34A4.83,4.83,0,0,0,85,56.82a19.13,19.13,0,0,1,4.5,5.07,12,12,0,0,1,1.26,1.89,18.45,18.45,0,0,1,.65,2.76c.84,4.43.07,2.34-.18,5.64a12.89,12.89,0,0,1-.61-2.37,4.77,4.77,0,0,0-1.17-2L88.83,73c-.44,3.86-.64,4.72-2.63,7.55-.77,1.09-2.8,3.06-4.06,3.17.31-1.42.62-2.67.89-4.25a11.7,11.7,0,0,0-.29-4.89c-.51.89-.5,2.17-.92,3.12s-.73,1.82-1.2,2.83a24.81,24.81,0,0,1-1.28,2.71c-.56.8-1.24,1.17-1.84,2.1-1.09,1.68-2.1,3.1-3.17,4.8-.55.88-1,1.58-1.56,2.42l-4.19,5.68a30.28,30.28,0,0,0-2.07,4c-.5.92-1,1.68-1.45,2.55-2.72,5.21-3.36,6.48-3.38,12.83,0,5.63,2.92,10,6.3,13.76l10.81,12.94c2.26,4,3.92,11.73,3.92,16.58-.52-.42-.49-.65-.79-1.3s-.44-.78-.73-1.38c-.53-1.07-.86-2-1.39-3a20.63,20.63,0,0,0-1.57-2.64,8.9,8.9,0,0,0-2.07-2.3c.85,4,1.86,5.81,2.47,10.36.32,2.45.91,5,1.09,7.49A81.21,81.21,0,0,1,79,178.2c-.13,1.13.12,1.15-.49,1.64a40.75,40.75,0,0,0-.41-4.12A57.79,57.79,0,0,0,75.71,164c-3.69-10-4.06-7.88-8.28-14.42a46.52,46.52,0,0,0-3.62-5.6c-1.45-1.65-2.11-4.17-3.06-6.22a20.5,20.5,0,0,1-1.83-9.26c-.06-1.05-.19-1.61-.23-2.44a19.65,19.65,0,0,0,0-2.18c-.09-1.3,0,2.81,0,2.32a84.59,84.59,0,0,1,.45-11.37A42.11,42.11,0,0,1,61,108.14c.27-.77.46-1.47.77-2.19a54.52,54.52,0,0,1,4-7.16c.91-1.51,2.16-4.19,3-5.37.46-.61.8-1.07,1.21-1.72a94.71,94.71,0,0,0,6.5-16.14c1.32-5.77.07-11.72-1.93-17.07a5,5,0,0,0-1-2,22.49,22.49,0,0,0,.53,5.3c.42,1.71.83,3,1.15,4.83A26,26,0,0,1,75,76.33c-.19.79.17.59-.63.82,0-1.23.39-2.3.4-3.69,0-3.51-.26-7-1.79-10l-.14-.27c-.24-.4-.09-.16-.26-.37A29,29,0,0,1,71.7,70l-2.34,5.92c-.21-2.72-2.58-4.94-2.58-8.49A9.8,9.8,0,0,0,65.58,70a18.62,18.62,0,0,0-.6,7.2c.09,1.22,0,2.85,0,4.12-1-.39-2.08-2.56-2.57-3.49-4.55-8.69-1.27-11.38-1.2-15A28,28,0,0,0,58.63,65,20,20,0,0,1,60,61c.57-1.38,1-2.64,1.49-4,2-5.33,6-11.53,3-16.87-.7-1.28-1.28-2.2-2-3.46-.57-1-.81-.59-.88-1.87V32A8.15,8.15,0,0,1,63,33c1.22,1,2.68,1.51,3.44,2.09.42.32.45.74.73,1.17,0-4.12.48-5.24-1-9.36a8.08,8.08,0,0,0-1.78-3.34c-.93-.91-2.09-1.23-3-2.12,4.18,0,7.8-.36,10.57,3.2,1.19,1.52.56,4.09-.48,5.68-1.32,2-.76,3.64-.76,6.34a1.25,1.25,0,0,0,.22-.41,1.83,1.83,0,0,0,.16-.69c.18-1.72.42-5.61,2.89-4.46a2,2,0,0,1,.89.78l.6,1.09c.15-2,.35-2.19-.94-3.54-1-1.09-1.24-1.52-1.24-3.64a7.16,7.16,0,0,1,6.17,3.38,10.66,10.66,0,0,0,1,1.12c3.17,3.43,3.66,8.23,6,10,1.4,1,1.57.55,3.1.52Z" transform="translate(0.89 1)"/><path id="path77" class="cls-1" d="M56.23,84.68h-.35s-.08-.11-.1-.08c-.17.37-1.63-2.83-3.63-3.76-4.26-2-12.11,2.76-16-.26A18.05,18.05,0,0,1,33.91,79c3.25,0,4,.34,7.88-.31,5.2-.87,3.93,0,7.83,0a8.14,8.14,0,0,1-2.82-2.43l-2.41-3a34.13,34.13,0,0,1,3.49.37c-2.1-1.87-2.29-2.37-5-2.71s-3.83-.13-6.73-1.16c-2.1-.74-5.46-3.24-6.47-5.31-.54-1.11-.42-2.09-.42-3.64h-.35c-.1,1.18-.67,2-.7,3.19-1.27-.11-4.66-4.46-4.7-6.57-.49.36-.62,1.72-.88,2.83-5.41-6.37-4.89-7.72-4.83-15.79,0-1-.15-1.32-.18-2.13-.1-2.38,1.58-9.82.91-12.75.79.22,1.59,1.66,2,2.38a14.86,14.86,0,0,1,1.4,3.19c.84,2.66.74,4.85.73,8.26l1.56-4.45a42.94,42.94,0,0,0,.22-6c1.27.34,3.41,3.8,3.89,5.43.62,2.13.61,6.18.6,8.93.83-.56,1.78-3,1.92-4.27a22.74,22.74,0,0,0,0-2.86c0-.65.08-2,.08-3,.77.21,1.88,1.91,2.34,2.59a5.87,5.87,0,0,1,1.49,3.44c.17,3.51,0,3.88,0,7.1,0,1-.18,1.22-.19,2.3,1.37-.93,1.12-3,1.38-5a14.81,14.81,0,0,0,.22-2.1h.34a48.69,48.69,0,0,0,3.58,5.41c2.94,4,.81,3.23,8.57,4.78,4.31.86,5.34.56,8,1.06a27,27,0,0,1,3.51,1C58.78,59,57.33,59,55.27,62A12.83,12.83,0,0,0,53,69.05c-.62-.17-.83-.63-1.77-1.4l-1.68-1.44c-.33-.28-.47-.5-.8-.78a9.77,9.77,0,0,1-.87-.72l-4.25-3.83c-.36-.31-.54-.57-.88-.88l-1.68-1.48C40.4,58,40,57.24,39.2,57c0,3.87,1.69,5.6,3.82,7.28l7.32,6.59c2.11,2.19,2,.77,3.1,5.35a35.58,35.58,0,0,0,1.35,4.29c.28.74.46,1.34.74,2.08a9.63,9.63,0,0,0,.42,1c.33.67.31.07.33,1.08Z" transform="translate(0.89 1)"/><path id="path79" class="cls-1" d="M90.88,83.4h-.7c0-.5,2.18-5.68,2.83-8.29,1.13-4.59.62-2.84,3.23-5.22l4.28-4.17c3.47-3.49,6.76-4.34,6.76-10.14l-1.52,1.63a19.38,19.38,0,0,1-3.69,3,57.56,57.56,0,0,0-4.26,4c-1.5,1.27-3.53,3.69-4.49,4,0-1.2.54-1.5-.4-3.85a8.77,8.77,0,0,0-.75-1.54c-1.39-2.35-1.16-3.18-4.26-5.24a4.43,4.43,0,0,1-1.4-1.07c1.2-.28,2-.77,3.39-1s2.78-.31,4.11-.43a75.81,75.81,0,0,0,7.79-1.31c3-.58,3.42-2.06,4.82-4.14.62-.93,1.27-1.81,1.88-2.69a13.75,13.75,0,0,1,1.93-2.73c0,1.34.25,2.49.36,3.88s.17,2.5,1.21,3.21c0-3.2-.19-5.93-.19-9.23,0-2.25,2.8-4.2,3.33-6.19h.52c.31,3.76-.12,4,0,5.66s.79,3.62,1.74,4.26c0-.89.17-1.23.18-2.12.08-6.91.22-6.92,3.71-11.49.58-.76.64-.5.79,0v2.27c0,1.33.32,7.1,1.75,7.62,0-5.27.12-9,3.15-12.92.25-.33.21-.42.69-.54,0,1.35.24,2.65.36,4.06.1,1.24.25,2.81.43,4.16.39,2.8-.07,6.24.33,8.89a18.23,18.23,0,0,1-1.12,7.88,33.36,33.36,0,0,1-3.84,5.31,12.41,12.41,0,0,1-.53-2.49,4.89,4.89,0,0,0-1,1.78c-.64,1.31-2.58,4.3-4,4.43a14.23,14.23,0,0,0-.87-3.19,15,15,0,0,1-.49,3.4,7.82,7.82,0,0,1-2.6,3.21c-.38.31-.68.58-1.07.86-5.38,3.77-9.32,1.64-12.29,3.47a7.62,7.62,0,0,0-2.29,1.82,30.9,30.9,0,0,0,3.32-.36c-.13.49-.85,1.1-1.18,1.46-1,1.14-1.57,2.51-3,3.47l-.44.27a1.64,1.64,0,0,0-.4.29c3,0,5.07-.35,7.88.15a20.27,20.27,0,0,0,3.81.39,16.68,16.68,0,0,0,2,0c.44-.06,1.27-.26,1.79-.31-.22.83-1.07,1-2.06,1.63-3.52,2.15-2.87,1.4-9.12.51-2.08-.3-4.72-.88-6.65-.22-2.15.75-2.69,2.23-3.81,3.93Z" transform="translate(0.89 1)"/><path id="path81" class="cls-1" d="M137,20a89.43,89.43,0,0,0,.94,11.44c.2,1.39.25,3.28.53,5.61.2.94-.35,1.6-.51,2.74.15-.63-.43,1.86-.3,1.48l-.23,1.16c-.2,3.53-.81,4.07-2.63,7.11a6.32,6.32,0,0,1-1.42,1.71,3.5,3.5,0,0,0-.85.73c-.76.9-3.28,4.17-4.07,4.38a41,41,0,0,1,2.48-4c2-3.23,1.1-2.79,2.16-4.55a9.87,9.87,0,0,0,1.83-4.87c0-2.38.52-4.3.52-8a23.19,23.19,0,0,0-.78-4.36l-.8-4.33a1.73,1.73,0,0,0-.22.31,2.92,2.92,0,0,0-.23.47c-.17.41-.28.71-.39,1a26.6,26.6,0,0,0-1.44,7.22,43.75,43.75,0,0,1-.35,5.49l-.46-1.12a13.38,13.38,0,0,1-.4-1.37,90.3,90.3,0,0,1-.87-10.64c.32-3.05,1.73-6.87,2.18-8.88,1.4-2.26,1.88-4.65,3.37-6.92,1.23-1.88,5.66-7.14,7.57-8.44l1.58-1.06c.71-.48.94-.88,1.53-1.28-.08,1.08-1.78,2.89-2.71,4.15a30.79,30.79,0,0,0-3.79,6.43C138,14.47,137,16.12,137,20Z" transform="translate(0.89 1)"/><path id="path83" class="cls-1" d="M17.13,25.91c0,6.12.42,9.93-1.37,15.66a1.46,1.46,0,0,1-.43.82c0-1.35.18-1.93.19-3.19,0-.63-.35-1-.35-1.42,0-1.57.36-.12,0-2.81C15,33.4,14,28.39,13,27.14c-.1,3.8-2.56,7.5-1.25,14,.52,2.56-.49,3.21.87,5.48,1.48,2.45,1.17,3.65,4.27,8.41a9.81,9.81,0,0,1,1.25,2.09c-.76-.06-.56-.1-1-.63l-4.4-5.1a4,4,0,0,1-.8-1,21.11,21.11,0,0,1-3.05-9.82c-.23.17.07.72-.53,1.42l1-13.78c.93-7,1-11.39-2.78-17.79C5.11,8,1.65,3.42,1,2.09c.92.25,5,3.6,5.61,4.22l6.47,8.5c.66,1.11,1.2,2.15,1.77,3.33C15.84,20.21,17.14,22.91,17.13,25.91Z" transform="translate(0.89 1)"/><path id="path85" class="cls-1" d="M63.47,155.38c-5.77-3.3-12.31-16-12.31-24.28,0-8.75.41-11.76,3-19.7,2.82-8.65,3-6.59,5.59-12.67a24.89,24.89,0,0,1,2.17-3.87c.44-.65.75-1.16,1.2-1.8.79-1.12.73-1.42,1.53-1.66a12,12,0,0,1-1.51,3.27c-3.85,6.67-4.27,11.35-5.91,18.87a17.45,17.45,0,0,0-.73,4.17A92.72,92.72,0,0,0,57,132.14c.77,5.27,1.94,7.29,2.93,11.85,2,6.41,2.68,10.81,3.54,11.39Z" transform="translate(0.89 1)"/><path id="path87" class="cls-1" d="M85.61,145.21a27.94,27.94,0,0,0-1.11-6.67l-.8-3c-.29-1.12-.81-2.28-.47-3.19a43.19,43.19,0,0,1,2.34,4.6,26,26,0,0,1,2,5.1c3.31,12.47,1.12,21.62-.92,32.75L86,170c0-2.52-.94-12-1.28-14-.57-3.25-3.42-11.68-5.33-14.18l-3.77-5.6c-.66-.88-1.17-1.82-1.79-2.77-2-3-3.74-5.21-5.62-8.52-.72-1.27-2.54-5.5-2.66-7.22l5.87,9,4.2,4.76c.86,1.09,1.69,2.28,2.58,3.28,2.16,2.42,5.92,6.39,6.91,9.4a3.27,3.27,0,0,0,.17.53C85.54,145.21,85.34,144.84,85.61,145.21Z" transform="translate(0.89 1)"/><path id="path89" class="cls-1" d="M60.34,55.81c-1.34-.91-2.6-3.1-5.23-3.2-1,0-1.45-.18-2.62-.19-3.53,0-2.35.87-6.31-1.58-.64-.39-1.17-.6-1.81-1a15,15,0,0,1-2.9-2.55c-1.08-1.11-2.55-2.17-2.74-2.89a56.09,56.09,0,0,1,10.36,1.91A18,18,0,0,1,52,47.63c1.73.87,6.32,3.49,7.29,5A7.2,7.2,0,0,1,60.34,55.81Z" transform="translate(0.89 1)"/><path id="path91" class="cls-1" d="M86.34,54.52a7.67,7.67,0,0,1,1.07-3c1.14-1.75,5.42-4.07,7.34-5.13,4-2.18,5.53-2.1,9.58-2.68,1.16-.17,2.55-.45,3.65-.55-.21.79-1.32,1.64-1.94,2.11-2.56,1.91-2.41,2.76-4.46,3.8l-2.67,1.54c-2.87,1.91-6.65-.8-10.28,2A27.91,27.91,0,0,1,86.34,54.52Z" transform="translate(0.89 1)"/><path id="path93" class="cls-1" d="M86.73,73.4c0,1.8-.08,4.46-1.21,5.61-1.14-3-1.36-5.62-3.64-7.18a25.83,25.83,0,0,1-4.47,11.38c.11-3,1.59-6.28,1.33-10.23l-1-8c1,.9,1.82,2.68,2.77,3.57l.08-4.09c.81.14,3.61,4.08,3.87,4.66.21-.33.18-.09.22-.67l-.82-4.87C85.83,64.79,86.73,70.28,86.73,73.4Z" transform="translate(0.89 1)"/><path id="path95" class="cls-1" d="M32.81,36.42c-.9-.22-1.42-1-2.09-1.43a30,30,0,0,0-.36,3c-.7-.52-.76-3.51-2.3-4.92l-4.14-3.25c0,1.68-.18,2.63-.18,4.25-.48-.55-.7-2.3-1.38-3.73-1.38-2.86-2.51-2.16-3.85-6.71L17.15,19.7A14.46,14.46,0,0,1,18.94,22,18.7,18.7,0,0,0,21,24c.35.37.45.64.86,1.07,2.12,2.19,4.32,3.85,5.32,4.88l4,4.1c.35.42.51.65.87,1.07.78.92.7.78.75,1.37Z" transform="translate(0.89 1)"/><path id="path97" class="cls-1" d="M130.28,15.9c-.32,5.72-3.6,7.3-5.47,11.82-.14.35-.19.57-.31.92l-.51.9c0-1.46-.17-2.22-.17-3.72-.74.51-1.24,1-2,1.52-2.65,1.77-3.24,2.67-4.11,6.46h-.37c0-1.14-.17-1.6-.17-2.84-.7.19-1.19.83-2.27,1.42.38-1.67,2.41-3.29,3.61-4.31,1.5-1.27,2.33-2.73,3.91-4a49,49,0,0,0,7-6.88Z" transform="translate(0.89 1)"/><path id="path99" class="cls-1" d="M43,75.61l-4.29.24c-5.38.8-6.29-.28-8.28-.28v-.36c1.17-.09,2.78-.49,3.32-1.23a36.51,36.51,0,0,1-4.08-1.18,7.86,7.86,0,0,1-3.24-2,7.38,7.38,0,0,1,2.17.46c6,1.56,11.4-.19,14.4,4.38Z" transform="translate(0.89 1)"/><path id="path101" class="cls-1" d="M112.69,72.94c.47.41.74.35,1.51.6A7.54,7.54,0,0,0,116,74v.35c-1.31.11-.8.53-3.49.53l-5.42-.17c-.9,0-1-.14-1.74-.18-.51,0-2.62.39-.6-1.32,2.74-2.31,3.8-2,9-2.4a37.29,37.29,0,0,0,6.45-1.24c-1.06,1.6-5.61,2.91-7.51,3.36Z" transform="translate(0.89 1)"/><path id="path103" class="cls-1" d="M68.6,60.52c-.66-1.08-.66-3-1-4.38l-3,6.24C62.66,59.11,66,52.26,67.43,49.3A20.55,20.55,0,0,0,69,45.21C70.27,47.92,70,58,68.6,60.52Z" transform="translate(0.89 1)"/><path id="path105" class="cls-1" d="M31.14,69A7.14,7.14,0,0,1,27,68.29a5.58,5.58,0,0,1-3-2.49h.61a.14.14,0,0,0,.09,0c-.79-1.54-1.39-2-1.38-4.26,0-1.34,1.23.65,1.71,1.27.63.8,1.22,1.39,1.84,2.21L30,68A3.94,3.94,0,0,1,31.14,69Z" transform="translate(0.89 1)"/><path id="path107" class="cls-2" d="M122,64.79l.69-.2c-.27,1.08-1.85,2-2.78,2.51a8.93,8.93,0,0,1-4.55.88,19.88,19.88,0,0,1,2.12-1.77c.68-.56,1.38-1.37,2-2l3.71-4.39C123.67,62,122.69,63.36,122,64.79Z" transform="translate(0.89 1)"/><path id="path109" class="cls-1" d="M45.05,85.54c-1.07,0-4.94-2-5.75-2.15v-.53c1,0,1.21.18,2.27.18,5.12,0,2.16,0,5.14-.79A10.57,10.57,0,0,1,49.78,82c-.47,2-3,3.53-4.73,3.53Z" transform="translate(0.89 1)"/><path id="path111" class="cls-1" d="M107.28,81.8c-.14.55,0,.38-1.24.87-2.74,1.06-5,2.64-7.69.58a4.25,4.25,0,0,1-1.71-2.51,10.11,10.11,0,0,1,4.9,1C102.58,82.21,105.69,81.8,107.28,81.8Z" transform="translate(0.89 1)"/><path id="path113" class="cls-2" d="M63.57,80.63c-3.25-.78-6.58-5.45-6.78-8,.51.38.7,1,1.21,1.42,0-1.49.51-2.89.54-4.25h.52a13.25,13.25,0,0,0,2.87,8.59Z" transform="translate(0.89 1)"/><path id="path115" class="cls-2" d="M90.53,83.4h.35c1.84-.44,4.61-1.1,5.31,1a2.7,2.7,0,0,1-.49,2.67,1.5,1.5,0,0,1-2.06.5,1.35,1.35,0,0,1-.32-.26c.13-.51.07-.23.33-.55l.17-.18c.62-.7.55-.86.55-1.93-2.64-1.28-4.5,1.61-5.76,1.95a12.39,12.39,0,0,0,.87-1.6,3.79,3.79,0,0,1,1-1.59Z" transform="translate(0.89 1)"/><path id="path117" class="cls-2" d="M55.88,84.68h.35c.29.45,1.76,2.73,1.6,3.17-.38,1-1.29-3.08-5.45-2.11-.91,1.92.45,1.83,1,2.66-1,.54-1.52,1-2.49-.13a2.51,2.51,0,0,1-.59-2.65c1-2.35,3.29-1.13,5.54-.94Z" transform="translate(0.89 1)"/></svg>